# xmcd
#
# Track frame offsets:
#	150
#	19934
#	41169
#	63744
#	83029
#	105644
#	124554
#	144323
#	161373
#	176483
#
# Disc length: 2621 seconds
#
# Revision: 1
# Processed by: cddbd v1.5.2PL0 Copyright (c) Steve Scherf et al.
# Submitted via: audiograbber 1.83.01
#
DISCID=7e0a3b0a
DTITLE=Simply Red - Symphonica in Rosso CD01
DYEAR=2018
DGENRE=Soul
TTITLE0=All or nothing at all
TTITLE1=Your mirror
TTITLE2=For your babies
TTITLE3=Someday in my life
TTITLE4=So beautiful
TTITLE5=Say you love me
TTITLE6=Big Love
TTITLE7=Home
TTITLE8=Smile
TTITLE9=It was a very good year
EXTD=
EXTT0=
EXTT1=
EXTT2=
EXTT3=
EXTT4=
EXTT5=
EXTT6=
EXTT7=
EXTT8=
EXTT9=
PLAYORDER=
